<?xml version="1.0" standalone="no"?><!DOCTYPE svg PUBLIC "-//W3C//DTD SVG 1.1//EN" "http://www.w3.org/Graphics/SVG/1.1/DTD/svg11.dtd"><svg t="1598411032674" class="icon" viewBox="0 0 1024 1024" version="1.1" xmlns="http://www.w3.org/2000/svg" p-id="3145" xmlns:xlink="http://www.w3.org/1999/xlink" width="200" height="200"><defs><style type="text/css"></style></defs><path d="M716.8 60.235294c-81.317647 0-153.6 36.141176-204.8 96.376471-51.2-60.235294-123.482353-96.376471-204.8-96.376471C153.6 60.235294 30.117647 192.752941 30.117647 358.4c0 45.176471 6.023529 87.341176 21.082353 126.494118 0 0 12.047059 36.141176 21.082353 57.223529C189.741176 798.117647 512 963.764706 512 963.764706s322.258824-165.647059 439.717647-424.658824c0 0 15.058824-33.129412 21.082353-57.223529 12.047059-39.152941 21.082353-81.317647 21.082353-126.494118C993.882353 192.752941 870.4 60.235294 716.8 60.235294z m198.776471 406.588235c-6.023529 15.058824-15.058824 42.164706-18.070589 48.188236-87.341176 192.752941-307.2 334.305882-385.505882 379.482353-78.305882-45.176471-298.164706-186.729412-385.505882-379.482353-6.023529-15.058824-15.058824-36.141176-18.070589-51.2-12.047059-33.129412-18.070588-72.282353-18.070588-105.411765C90.352941 225.882353 189.741176 120.470588 307.2 120.470588c60.235294 0 117.458824 27.105882 159.623529 75.294118L512 246.964706l45.176471-51.2C599.341176 147.576471 656.564706 120.470588 716.8 120.470588c120.470588 0 216.847059 105.411765 216.847059 234.917647 0 36.141176-6.023529 72.282353-18.070588 111.435294z" fill="#2c2c2c" p-id="3146"></path></svg>