<?xml version="1.0" standalone="no"?><!DOCTYPE svg PUBLIC "-//W3C//DTD SVG 1.1//EN" "http://www.w3.org/Graphics/SVG/1.1/DTD/svg11.dtd"><svg t="1599122296693" class="icon" viewBox="0 0 1024 1024" version="1.1" xmlns="http://www.w3.org/2000/svg" p-id="3026" xmlns:xlink="http://www.w3.org/1999/xlink" width="200" height="200"><defs><style type="text/css"></style></defs><path d="M512 512m-512 0a512 512 0 1 0 1024 0 512 512 0 1 0-1024 0Z" fill="#FFA600" p-id="3027"></path><path d="M746.666667 561.92a20.053333 20.053333 0 0 0-21.333334 21.333333v130.56a13.653333 13.653333 0 0 1-12.8 12.8H310.186667a13.653333 13.653333 0 0 1-12.8-12.8v-130.56a21.333333 21.333333 0 1 0-42.666667 0v130.56A56.746667 56.746667 0 0 0 310.186667 768h402.346666a56.746667 56.746667 0 0 0 55.466667-55.466667v-129.28a20.053333 20.053333 0 0 0-21.333333-21.333333z m61.866666-200.96L738.133333 224a22.613333 22.613333 0 0 0-19.626666-10.666667h-426.666667a20.48 20.48 0 0 0-19.2 14.933334L215.893333 367.36C213.333333 371.626667 213.333333 384 213.333333 384v53.333333a99.413333 99.413333 0 0 0 98.56 98.56H341.333333a96.426667 96.426667 0 0 0 74.666667-29.866666 110.08 110.08 0 0 0 85.333333 29.866666h27.733334a110.08 110.08 0 0 0 85.333333-29.866666 103.68 103.68 0 0 0 74.666667 27.733333h27.733333a99.413333 99.413333 0 0 0 93.866667-98.133333v-55.466667a66.133333 66.133333 0 0 0-2.133334-19.2zM305.92 256h400.213333l44.8 85.333333H269.653333z m406.613333 235.093333H682.666667c-12.8 0-55.466667-2.133333-55.466667-42.666666a21.333333 21.333333 0 1 0-42.666667 0v8.533333c0 34.133333-51.2 36.266667-61.866666 36.266667h-27.733334c-10.666667 0-61.866667-2.133333-61.866666-36.266667v-6.4a21.333333 21.333333 0 0 0-42.666667 0c0 32-27.733333 42.666667-55.466667 42.666667h-25.6A56.746667 56.746667 0 0 1 256 437.76V384h512v51.2a55.04 55.04 0 0 1-55.893333 56.32z" fill="#FFFFFF" p-id="3028"></path></svg>